<?xml version="1.0" encoding="UTF-8"?>
  <svg width="435pt" height="435pt" viewBox="0 -1 435.43736 435" fill="#fff" xmlns="http://www.w3.org/2000/svg">
  <path d="m68.484 289.8 77.379 77.379 14.777-15.613-76.543-76.547z" />
  <path d="m69.754 332.4c-3.7812 0.007812-7.5352 0.63672-11.113 1.8672-12.242 3.9883-21.059 14.723-22.59 27.508l-5.7578 43.594 43.594-5.7578c17.535-2.3633 30.27-17.867 29.184-35.527-1.0859-17.66-15.625-31.488-33.316-31.684z"/>
  <path d="m251.92 344.94 38.039-38.039c2.7305-2.7344 7.1641-2.7344 9.8984 0s2.7344 7.168 0 9.8984l-38.039 38.039 14.781 14.777 38.035-38.035c2.7344-2.7344 7.168-2.7344 9.9023 0 2.7305 2.7344 2.7305 7.1641 0 9.8984l-38.039 38.039 34 34 5.7305-5.7344c18.566-18.504 29.289-43.445 29.945-69.648l4.0586-152.57-133.84 133.84z"/>
  <path d="m102.43 109.48c2.7344 2.7344 2.7344 7.168 0 9.9023l-38.039 38.035 14.781 14.777 38.035-38.035c2.7344-2.7344 7.168-2.7344 9.9023 0s2.7344 7.1641 0 9.8984l-38.039 38.039 27.176 27.176 70.449-70.453 63.398-63.402-152.57 4.0625c-26.203 0.65625-51.148 11.379-69.652 29.941l-5.7305 5.7344 32.348 32.363 38.039-38.039c2.7344-2.7344 7.1641-2.7344 9.8984 0z"/>
  <path d="m320.12 64.855c-4.3125-0.007813-8.4492 1.7031-11.5 4.7578l-24.676 24.676c-6.3477 6.3516-6.3477 16.648 0 23l11.445 11.445 47.68-47.684-11.449-11.438c-3.0469-3.0547-7.1836-4.7656-11.5-4.7578z"/>
  <path d="m318.37 151.73c6.3555 6.3398 16.645 6.3398 23 0l24.676-24.68c6.3516-6.3516 6.3516-16.648 0-23l-13.086-13.09-47.684 47.684z"/>
  <path d="m299.59 45.734-212.48 212.48 18.324 18.328 69.934 69.93 2.0781 2.0781 34.098-34.102 151.21-151.2 27.18-27.18c15.633-15.602 26.215-35.543 30.367-57.234l15.145-78.621-78.621 15.148c-21.691 4.1523-41.633 14.734-57.23 30.367zm-88.156 255.73c-2.7344 2.7344-7.168 2.7344-9.8984 0l-67.34-67.336c-2.7305-2.7344-2.7305-7.1641 0-9.8984 2.7344-2.7344 7.168-2.7344 9.9023 0l67.336 67.336c2.7305 2.7344 2.7344 7.1641 0 9.8984zm24.676-24.68c-2.7305 2.7344-7.1641 2.7344-9.8984 0l-67.336-67.332c-2.7344-2.7344-2.7344-7.168 0-9.9023s7.168-2.7344 9.8984 0l67.336 67.336c2.7344 2.7344 2.7344 7.168 0 9.8984zm148.7-161.24c0.019531 8.0312-3.1719 15.734-8.8672 21.398l-24.676 24.676c-11.828 11.801-30.973 11.801-42.801 0l-15.938-15.934c-1.957-0.69922-3.5-2.2422-4.1992-4.1992l-14.293-14.297c-11.816-11.816-11.816-30.98 0-42.797l24.676-24.68c11.828-11.797 30.973-11.797 42.801 0l34.434 34.434c5.6953 5.6602 8.8867 13.367 8.8672 21.398z"/>
  <path d="m54.496 147.52-52.445 52.445c-2.7344 2.7344-2.7344 7.168 0 9.9023 2.7344 2.7344 7.1641 2.7344 9.8984 0l52.445-52.449z"/>
  <path d="m43.18 208.19c-2.7344 2.7344-2.7344 7.168 0 9.9023 2.7344 2.7344 7.1641 2.7344 9.8984 0l36-36-9.8984-9.9023z"/>
  <path d="m224.15 422.07c-2.7344 2.7305-2.7344 7.1641 0 9.8984 2.7344 2.7344 7.168 2.7344 9.8984 0l52.449-52.445-9.9023-9.9023z"/>
  <path d="m215.92 380.94c-2.7305 2.7305-2.7305 7.1641 0 9.8984 2.7344 2.7344 7.168 2.7344 9.9023 0l36-36-9.9023-9.8984z"/>
</svg>
