<svg width="580" height="580" viewBox="0 -1 435.437 435" fill="#122932" xmlns="http://www.w3.org/2000/svg"><path d="M68.484 289.8l77.379 77.379 14.777-15.613-76.543-76.547zm1.27 42.6a34.383 34.383 0 0 0-11.113 1.867 33.07 33.07 0 0 0-22.59 27.508l-5.758 43.594 43.594-5.758c17.535-2.363 30.27-17.867 29.184-35.527-1.086-17.66-15.625-31.488-33.316-31.684zm182.166 12.54l38.039-38.039c2.73-2.734 7.164-2.734 9.898 0s2.735 7.168 0 9.898l-38.039 38.04 14.781 14.776 38.035-38.035a7.002 7.002 0 0 1 9.903 0 7.004 7.004 0 0 1 0 9.899l-38.04 38.039 34 34 5.731-5.735a101.93 101.93 0 0 0 29.945-69.648l4.059-152.57-133.84 133.84zM102.43 109.48a7.002 7.002 0 0 1 0 9.902l-38.039 38.035 14.781 14.777 38.035-38.035c2.734-2.734 7.168-2.734 9.902 0s2.735 7.164 0 9.899L89.07 182.097l27.176 27.176 70.45-70.453 63.397-63.402-152.57 4.062a101.955 101.955 0 0 0-69.652 29.941l-5.73 5.735 32.348 32.363 38.039-38.04a6.997 6.997 0 0 1 9.898 0zm217.69-44.625a16.208 16.208 0 0 0-11.5 4.758l-24.676 24.676c-6.348 6.351-6.348 16.648 0 23l11.445 11.445 47.68-47.684-11.449-11.438a16.195 16.195 0 0 0-11.5-4.758zm-1.75 86.875c6.356 6.34 16.645 6.34 23 0l24.676-24.68c6.352-6.352 6.352-16.648 0-23L352.96 90.96l-47.684 47.684z"/><path d="M299.59 45.734L87.11 258.214l18.324 18.328 69.934 69.93 2.078 2.078 34.098-34.102 151.21-151.2 27.18-27.18a110.11 110.11 0 0 0 30.367-57.234L435.446.214l-78.62 15.147a110.081 110.081 0 0 0-57.23 30.367zm-88.156 255.73a6.997 6.997 0 0 1-9.898 0l-67.34-67.336a7.004 7.004 0 0 1 0-9.898 7.002 7.002 0 0 1 9.902 0l67.336 67.336a7 7 0 0 1 0 9.898zm24.676-24.68a6.997 6.997 0 0 1-9.898 0l-67.336-67.332a7 7 0 0 1 0-9.902 6.997 6.997 0 0 1 9.898 0l67.336 67.336a6.997 6.997 0 0 1 0 9.898zm148.7-161.24a30.07 30.07 0 0 1-8.867 21.398l-24.676 24.676c-11.828 11.801-30.973 11.801-42.801 0l-15.938-15.934a6.942 6.942 0 0 1-4.2-4.2l-14.292-14.296c-11.816-11.816-11.816-30.98 0-42.797l24.676-24.68c11.828-11.797 30.973-11.797 42.8 0l34.435 34.434a30.065 30.065 0 0 1 8.867 21.398zM54.496 147.52L2.051 199.965a7.002 7.002 0 0 0 0 9.902 6.997 6.997 0 0 0 9.898 0l52.445-52.449zM43.18 208.19a7.002 7.002 0 0 0 0 9.902 6.997 6.997 0 0 0 9.898 0l36-36-9.898-9.902zm180.97 213.88a6.997 6.997 0 0 0 0 9.898 6.997 6.997 0 0 0 9.898 0l52.45-52.445-9.903-9.902zm-8.23-41.13a7.004 7.004 0 0 0 0 9.898 7.002 7.002 0 0 0 9.902 0l36-36-9.902-9.898z"/></svg>